<svg width="64" height="64" viewBox="0 0 64 64" fill="none" xmlns="http://www.w3.org/2000/svg">
<path d="M48 26.6667C50.0539 26.6657 52.0644 27.2577 53.7901 28.3716C55.5157 29.4855 56.883 31.0739 57.7279 32.946C58.5727 34.8181 58.859 36.8943 58.5525 38.9252C58.246 40.9561 57.3597 42.8553 56 44.3947V56.6614C56.0007 57.0038 55.9135 57.3407 55.7466 57.6397C55.5798 57.9387 55.339 58.1899 55.0473 58.3692C54.7556 58.5486 54.4228 58.65 54.0806 58.6638C53.7385 58.6776 53.3986 58.6033 53.0933 58.4481L52.8533 58.3014L48 54.9094L43.1467 58.3014C42.8664 58.4971 42.5406 58.6177 42.2005 58.6517C41.8603 58.6857 41.5171 58.6319 41.2036 58.4955C40.8902 58.3591 40.6169 58.1446 40.4099 57.8725C40.203 57.6005 40.0692 57.2799 40.0213 56.9414L40.0027 56.6614V44.3894C38.6448 42.85 37.76 40.9515 37.4543 38.9217C37.1487 36.892 37.4352 34.8171 38.2795 32.9461C39.1238 31.0751 40.49 29.4874 42.2142 28.3736C43.9384 27.2598 45.9473 26.6671 48 26.6667V26.6667ZM52 47.2267C50.7291 47.7407 49.3709 48.0042 48 48.0027C46.6291 48.0042 45.2709 47.7407 44 47.2267V52.8241L46.856 50.8321C47.1484 50.6272 47.4903 50.5043 47.8462 50.4761C48.2021 50.448 48.5591 50.5157 48.88 50.6721L49.1467 50.8321L52 52.8241V47.2267V47.2267ZM51.3333 8.01074C53.2008 8.01065 54.9979 8.72299 56.3581 10.0025C57.7184 11.2819 58.5393 13.0321 58.6533 14.8961L58.6667 15.3441L58.6693 29.3334C57.5879 27.8937 56.2275 26.6865 54.6693 25.7841L54.6667 15.3441C54.6671 14.5189 54.3613 13.7228 53.8086 13.11C53.2559 12.4972 52.4956 12.1112 51.6747 12.0267L51.3333 12.0107H12.6667C11.8415 12.0104 11.0454 12.3161 10.4326 12.8688C9.81984 13.4215 9.43385 14.1819 9.34934 15.0027L9.33334 15.3441V40.6774C9.33334 42.4027 10.6453 43.8241 12.3253 43.9921L12.6667 44.0107L36.4587 44.0134L36.7867 44.5547L37.144 45.0774L37.3333 45.3281L37.3307 48.0107H12.6667C10.7988 48.0108 9.00132 47.2981 7.64101 46.0181C6.2807 44.738 5.46011 42.9872 5.34668 41.1227L5.33334 40.6774V15.3441C5.33325 13.4766 6.04559 11.6795 7.32506 10.3193C8.60453 8.95904 10.3547 8.13816 12.2187 8.02408L12.6667 8.01074H51.3333V8.01074ZM48 30.6667C46.2315 30.6667 44.5355 31.3693 43.285 32.6198C42.0345 33.8702 41.332 35.5663 41.332 37.3347C41.332 39.1032 42.0345 40.7992 43.285 42.0497C44.5355 43.3002 46.2315 44.0027 48 44.0027C49.7685 44.0027 51.4645 43.3002 52.715 42.0497C53.9655 40.7992 54.668 39.1032 54.668 37.3347C54.668 35.5663 53.9655 33.8702 52.715 32.6198C51.4645 31.3693 49.7685 30.6667 48 30.6667ZM30 33.3334C30.5067 33.3336 30.9945 33.5261 31.3648 33.872C31.7351 34.2179 31.9602 34.6915 31.9947 35.1971C32.0293 35.7026 31.8706 36.2025 31.5509 36.5955C31.2311 36.9886 30.774 37.2457 30.272 37.3147L30 37.3334H18C17.4933 37.3333 17.0055 37.1408 16.6352 36.7948C16.265 36.4489 16.0398 35.9753 16.0053 35.4697C15.9707 34.9642 16.1294 34.4644 16.4492 34.0713C16.7689 33.6782 17.226 33.4211 17.728 33.3521L18 33.3334H30ZM46 18.6667C46.5067 18.6669 46.9945 18.8594 47.3648 19.2053C47.7351 19.5513 47.9602 20.0249 47.9947 20.5304C48.0293 21.036 47.8706 21.5358 47.5509 21.9289C47.2311 22.322 46.774 22.579 46.272 22.6481L46 22.6667H18C17.4933 22.6666 17.0055 22.4741 16.6352 22.1281C16.265 21.7822 16.0398 21.3086 16.0053 20.8031C15.9707 20.2975 16.1294 19.7977 16.4492 19.4046C16.7689 19.0115 17.226 18.7545 17.728 18.6854L18 18.6667H46Z" fill="#F2C53D"/>
</svg>
