<svg width="64" height="64" viewBox="0 0 64 64" fill="none" xmlns="http://www.w3.org/2000/svg">
<path d="M32 40C27.0933 40 26.6666 37.7067 26.6666 37.3333H21.3333C21.3333 39.7867 23.0933 44.1333 29.3333 45.12V48H34.6666V45.12C40 44.2133 42.6666 40.7733 42.6666 37.3333C42.6666 34.3467 41.28 29.3333 32 29.3333C26.6666 29.3333 26.6666 27.6533 26.6666 26.6667C26.6666 25.68 28.5333 24 32 24C35.4666 24 35.7066 25.7067 35.7333 26.6667H41.0666C41.0306 24.85 40.3772 23.0997 39.214 21.7039C38.0508 20.308 36.447 19.3497 34.6666 18.9867V16H29.3333V18.9067C24 19.7867 21.3333 23.2267 21.3333 26.6667C21.3333 29.6533 22.72 34.6667 32 34.6667C37.3333 34.6667 37.3333 36.48 37.3333 37.3333C37.3333 38.1867 35.68 40 32 40Z" fill="#0A2A66"/>
<path d="M13.3333 5.33334H5.33331V10.6667H10.6666V56C10.6666 56.7073 10.9476 57.3855 11.4477 57.8856C11.9478 58.3857 12.6261 58.6667 13.3333 58.6667H50.6666C51.3739 58.6667 52.0522 58.3857 52.5523 57.8856C53.0524 57.3855 53.3333 56.7073 53.3333 56V10.6667H58.6666V5.33334H13.3333ZM48 53.3333H16V10.6667H48V53.3333Z" fill="#0A2A66"/>
</svg>
