<svg width="241" height="282" viewBox="0 0 241 282" fill="none" xmlns="http://www.w3.org/2000/svg">
<path d="M240.702 240.702C222.704 258.7 200.17 271.491 175.49 277.717C150.81 283.943 124.905 283.372 100.524 276.065C76.1421 268.759 54.1929 254.988 37.0048 236.216C19.8167 217.443 8.03078 194.367 2.89738 169.437C-2.23601 144.507 -0.525417 118.652 7.84769 94.6161C16.2208 70.5798 30.9441 49.2582 50.4557 32.9133C69.9672 16.5685 93.5393 5.81 118.671 1.77924C143.803 -2.25152 169.557 0.595782 193.202 10.0191L155.589 104.395C148.981 101.762 141.783 100.966 134.76 102.092C127.736 103.219 121.149 106.226 115.696 110.793C110.243 115.361 106.128 121.32 103.788 128.037C101.448 134.755 100.97 141.98 102.405 148.947C103.84 155.914 107.133 162.363 111.937 167.61C116.74 172.856 122.874 176.704 129.688 178.746C136.502 180.788 143.742 180.948 150.639 179.208C157.536 177.468 163.834 173.893 168.863 168.863L240.702 240.702Z" fill="#F2C53D"/>
</svg>
