<svg width="64" height="64" viewBox="0 0 64 64" fill="none" xmlns="http://www.w3.org/2000/svg">
<path d="M13.3334 45.3333V32H29.3334V45.3333V32H13.3334V45.3333ZM2.66669 48V26.7333C2.66669 25.8444 2.86669 25.0222 3.26669 24.2667C3.66669 23.5111 4.22224 22.8889 4.93335 22.4L18.2667 12.8667C19.2 12.2 20.2222 11.8667 21.3334 11.8667C22.4445 11.8667 23.4667 12.2 24.4 12.8667L37.7334 22.4C38.3111 22.8 38.8 23.2995 39.2 23.8987C39.6 24.4995 39.8667 25.1333 40 25.8C38.9778 26.2889 38.0222 26.8551 37.1334 27.4987C36.2445 28.144 35.4222 28.8667 34.6667 29.6667V26.6667L21.3334 17.2L8.00002 26.6667V45.3333H13.3334V32H29.3334V45.3333H29.5334C29.6667 46.2667 29.8667 47.1778 30.1334 48.0667C30.4 48.9555 30.7334 49.8222 31.1334 50.6667H24V37.3333H18.6667V50.6667H5.33335C4.5778 50.6667 3.94491 50.4107 3.43469 49.8987C2.92269 49.3884 2.66669 48.7555 2.66669 48ZM61.3334 7.99999V29.6667C60.5778 28.8667 59.7556 28.144 58.8667 27.4987C57.9778 26.8551 57.0222 26.2889 56 25.8V7.99999H32V11.7333L26.6667 7.86666C26.6667 6.44443 27.1894 5.22221 28.2347 4.19999C29.2782 3.17777 30.5334 2.66666 32 2.66666H56C57.4667 2.66666 58.7227 3.18843 59.768 4.23199C60.8116 5.27732 61.3334 6.53332 61.3334 7.99999ZM45.3334 18.6667H50.6667V13.3333H45.3334V18.6667ZM48 56C44.3111 56 41.1671 54.7004 38.568 52.1013C35.9671 49.5004 34.6667 46.3555 34.6667 42.6667C34.6667 38.9778 35.9671 35.8329 38.568 33.232C41.1671 30.6329 44.3111 29.3333 48 29.3333C51.6889 29.3333 54.8338 30.6329 57.4347 33.232C60.0338 35.8329 61.3334 38.9778 61.3334 42.6667C61.3334 46.3555 60.0338 49.5004 57.4347 52.1013C54.8338 54.7004 51.6889 56 48 56ZM46.6667 44V49.3333C46.6667 49.6889 46.8 50 47.0667 50.2667C47.3334 50.5333 47.6445 50.6667 48 50.6667C48.3556 50.6667 48.6667 50.5333 48.9334 50.2667C49.2 50 49.3334 49.6889 49.3334 49.3333V44H54.6667C55.0222 44 55.3334 43.8667 55.6 43.6C55.8667 43.3333 56 43.0222 56 42.6667C56 42.3111 55.8667 42 55.6 41.7333C55.3334 41.4667 55.0222 41.3333 54.6667 41.3333H49.3334V36C49.3334 35.6444 49.2 35.3333 48.9334 35.0667C48.6667 34.8 48.3556 34.6667 48 34.6667C47.6445 34.6667 47.3334 34.8 47.0667 35.0667C46.8 35.3333 46.6667 35.6444 46.6667 36V41.3333H41.3334C40.9778 41.3333 40.6667 41.4667 40.4 41.7333C40.1334 42 40 42.3111 40 42.6667C40 43.0222 40.1334 43.3333 40.4 43.6C40.6667 43.8667 40.9778 44 41.3334 44H46.6667Z" fill="#6489FF"/>
</svg>
