<svg width="111" height="256" viewBox="0 0 111 256" fill="none" xmlns="http://www.w3.org/2000/svg">
<path d="M69.4308 24L97.1436 8L97.8936 9.29904L111 1.73205L124.106 9.29904L124.856 8L152.569 24L151.819 25.299L179.532 41.299L180.282 40L207.995 56L207.245 57.299L220.351 64.866V80H221.851V112H220.351V144H221.851V176H220.351V191.134L207.245 198.701L207.995 200L180.282 216L179.532 214.701L151.819 230.701L152.569 232L124.856 248L124.106 246.701L111 254.268L97.8936 246.701L97.1436 248L69.4308 232L70.1808 230.701L42.468 214.701L41.718 216L14.0052 200L14.7552 198.701L1.64875 191.134V176H0.14875V144H1.64875V112H0.14875V80H1.64875V64.866L14.7552 57.299L14.0052 56L41.718 40L42.468 41.299L70.1808 25.299L69.4308 24Z" stroke="#6489FF" stroke-width="3" stroke-dasharray="27 27"/>
</svg>
