<svg width="111" height="256" viewBox="0 0 111 256" fill="none" xmlns="http://www.w3.org/2000/svg">
<path d="M-41.5692 24L-13.8564 8L-13.1064 9.29904L0 1.73205L13.1064 9.29904L13.8564 8L41.5692 24L40.8192 25.299L68.532 41.299L69.282 40L96.9948 56L96.2449 57.299L109.351 64.866V80H110.851V112H109.351V144H110.851V176H109.351V191.134L96.2449 198.701L96.9948 200L69.282 216L68.532 214.701L40.8192 230.701L41.5692 232L13.8564 248L13.1064 246.701L0 254.268L-13.1064 246.701L-13.8564 248L-41.5692 232L-40.8192 230.701L-68.532 214.701L-69.282 216L-96.9948 200L-96.2448 198.701L-109.351 191.134V176H-110.851V144H-109.351V112H-110.851V80H-109.351V64.866L-96.2448 57.299L-96.9948 56L-69.282 40L-68.532 41.299L-40.8192 25.299L-41.5692 24Z" stroke="#6489FF" stroke-width="3" stroke-dasharray="27 27"/>
</svg>
